<svg width="68" height="70" viewBox="0 0 68 70" fill="none" xmlns="http://www.w3.org/2000/svg">
<path fill-rule="evenodd" clip-rule="evenodd" d="M48.9587 36.5875C45.1381 38.1658 41.0142 39.1392 36.7008 39.3914C35.957 39.4349 35.2075 39.4569 34.4529 39.4569C33.6984 39.4569 32.9488 39.4349 32.205 39.3914C27.8906 39.1391 23.7657 38.1653 19.9445 36.5864C11.9252 33.2731 5.24303 27.295 0.952911 19.7285C7.63981 7.93476 20.1381 0 34.4529 0C48.7677 0 61.266 7.93476 67.9529 19.7285C63.6623 27.2958 56.9791 33.2744 48.9587 36.5875Z" fill="white"/>
<path d="M19.9439 39.6577C19.0201 39.276 18.114 38.8589 17.2272 38.4081C14.3454 40.4793 11.9092 43.0589 10.0748 46.002C13.1928 51.0044 18.0494 54.9567 23.8779 57.1473C26.6552 58.1911 29.6531 58.8349 32.7888 59.0017H36.0564C39.1913 58.835 44.7014 62.0036 36.7003 69.9999C42.5296 67.8095 55.652 51.005 58.7704 46.002C56.9412 43.0673 54.5137 40.494 51.6426 38.4259C50.7661 38.8703 49.8708 39.2818 48.9581 39.6588C45.1376 41.237 41.0136 42.2104 36.7003 42.4627C35.9564 42.5062 35.2069 42.5282 34.4524 42.5282C33.6978 42.5282 32.9483 42.5062 32.2044 42.4627C27.8901 42.2104 23.7652 41.2366 19.9439 39.6577Z" fill="white"/>
<rect x="18.2991" y="14.6817" width="32.3781" height="11.7977" rx="5.89887" fill="#162550"/>
<ellipse cx="43.417" cy="20.5152" rx="2.12" ry="2.16292" fill="#04FED1"/>
<ellipse cx="34.4226" cy="49.616" rx="2.12" ry="2.16292" fill="#162550"/>
<ellipse cx="25.944" cy="20.5152" rx="2.12" ry="2.16292" fill="#04FED1"/>
<ellipse cx="25.944" cy="49.616" rx="2.12" ry="2.16292" fill="#162550"/>
<ellipse cx="42.9037" cy="49.616" rx="2.12" ry="2.16292" fill="#162550"/>
</svg>
